<?xml version="1.0" encoding="iso-8859-1"?>
<!-- Generator: Adobe Illustrator 19.0.0, SVG Export Plug-In . SVG Version: 6.00 Build 0)  -->
<svg version="1.1" id="Layer_1" xmlns="http://www.w3.org/2000/svg" xmlns:xlink="http://www.w3.org/1999/xlink" x="0px" y="0px"
	 viewBox="0 0 480 480" style="enable-background:new 0 0 480 480;" xml:space="preserve">
<path style="fill:#21BABD;" d="M216,80c0,30.952,50.096,56,112,56v-8c0-48.6-39.4-88-88-88s-88,39.4-88,88
	C187.376,128,216,106.528,216,80z"/>
<path style="fill:#FCEADE;" d="M280,248h-3.496l0,0c-2.768,1.264-5.616,2.392-8.52,3.376c2.912-0.984,5.752-2.112,8.52-3.376
	c12.2-5.576,22.944-13.784,31.376-24c12.568-15.216,20.12-34.728,20.12-56v8h12c15.464,0,28-12.536,28-28s-12.536-28-28-28h-12v8v8
	c-61.904,0-112-25.048-112-56c0,26.528-28.624,48-64,48v-8h-12c-15.464,0-28,12.536-28,28s12.536,28,28,28h12v-8
	c0,35.56,21.136,66.12,51.496,80c2.768,1.264,5.616,2.392,8.52,3.376c-2.912-0.984-5.752-2.112-8.52-3.376l0,0H200l40,80L280,248z
	 M250.888,255.256c2.68-0.336,5.336-0.752,7.928-1.328C256.224,254.512,253.568,254.92,250.888,255.256z M259.552,253.744
	c2.84-0.656,5.64-1.424,8.376-2.344C265.192,252.32,262.392,253.088,259.552,253.744z M212.08,251.4
	c2.728,0.92,5.528,1.688,8.376,2.344C217.608,253.088,214.808,252.32,212.08,251.4z M221.176,253.936
	c2.6,0.576,5.256,0.984,7.928,1.328C226.432,254.92,223.776,254.512,221.176,253.936z M240,256c3.2,0,6.352-0.184,9.456-0.52
	C246.352,255.816,243.2,256,240,256s-6.352-0.184-9.456-0.52C233.648,255.816,236.8,256,240,256z"/>
<path style="fill:#21BABD;" d="M96,360c0-17.672,14.328-32,32-32h80h32l-40-80h-32c-61.856,0-112,50.144-112,112v112h40V360z"/>
<path style="fill:#FF8A5B;" d="M352,328h-80h-32h-32h-80c-17.672,0-32,14.328-32,32v112h288V360C384,342.328,369.672,328,352,328z
	 M240,424c-13.256,0-24-10.744-24-24s10.744-24,24-24c13.256,0,24,10.744,24,24S253.256,424,240,424z"/>
<circle style="fill:#FCEADE;" cx="240" cy="400" r="24"/>
<path style="fill:#21BABD;" d="M272,328h80c17.672,0,32,14.328,32,32v112h40V360c0-61.856-50.144-112-112-112h-32l-40,80H272z"/>
<g>
	<path style="fill:#2B2D42;" d="M208,168c4.416,0,8,3.592,8,8h16c0-13.232-10.768-24-24-24s-24,10.768-24,24h16
		C200,171.592,203.584,168,208,168z"/>
	<path style="fill:#2B2D42;" d="M272,168c4.416,0,8,3.592,8,8h16c0-13.232-10.768-24-24-24s-24,10.768-24,24h16
		C264,171.592,267.584,168,272,168z"/>
	<path style="fill:#2B2D42;" d="M240,368c-17.648,0-32,14.352-32,32s14.352,32,32,32s32-14.352,32-32S257.648,368,240,368z M240,416
		c-8.824,0-16-7.176-16-16s7.176-16,16-16s16,7.176,16,16S248.824,416,240,416z"/>
	<path style="fill:#2B2D42;" d="M432,360c0-66.168-53.832-120-120-120h-8.712c2.848-2.504,5.528-5.176,8.064-8H320
		c22.056,0,40-17.944,40-40v-14.096c9.64-6.464,16-17.456,16-29.904c0-12.496-6.408-23.504-16.096-29.96
		C358.84,52.784,305.512,0,240,0S121.16,52.784,120.096,118.04C110.408,124.496,104,135.504,104,148c0,19.848,16.152,36,36,36h5.448
		c3.744,22.168,15.072,41.744,31.272,56H168c-66.168,0-120,53.832-120,120v104H0v16h56h40h288h40h56v-16h-48V360z M240,264
		c8.56,0,16.824-1.232,24.728-3.344L240,310.112l-24.728-49.456C223.176,262.768,231.44,264,240,264z M299.056,256l-32,64h-14.112
		l32-64H299.056z M344,192c0,12.136-9.088,22.088-20.792,23.672c5.544-9.64,9.432-20.32,11.344-31.672H340
		c1.368,0,2.672-0.256,4-0.408V192z M340,168h-4v-40h4c11.032,0,20,8.976,20,20S351.032,168,340,168z M240,16
		c54.768,0,99.68,42.584,103.616,96.368C342.408,112.24,341.24,112,340,112h-5.448c-7.648-45.328-47.08-80-94.552-80
		s-86.904,34.672-94.552,80H140c-1.24,0-2.408,0.24-3.616,0.368C140.32,58.584,185.232,16,240,16z M319.992,127.8
		C262.256,125.768,224,102.16,224,80c0-4.416-3.576-8-8-8s-8,3.584-8,8c0,19.992-20.672,36.56-47.536,39.496
		C164.728,79.368,198.768,48,240,48C284.04,48,319.88,83.784,319.992,127.8z M140,168c-11.032,0-20-8.976-20-20s8.968-20,20-20h4v40
		H140z M160,168v-32.448c24.984-2.168,46.184-14.216,56.768-31.088C233.504,126.64,272.616,142.248,320,143.84V168
		c0,18.024-6.064,34.608-16.152,48H240v16h47.792c-4.592,3.44-9.544,6.4-14.824,8.8c-20.992,9.536-44.952,9.536-65.952,0
		C179.336,228.208,160,200.352,160,168z M227.056,320h-14.112l-32-64h14.112L227.056,320z M64,360
		c0-55.72,44.08-101.208,99.176-103.752L195.056,320H128c-22.056,0-40,17.944-40,40v104H64V360z M104,464V360
		c0-13.232,10.768-24,24-24h80h32h32h80c13.232,0,24,10.768,24,24v104H104z M392,464V360c0-22.056-17.944-40-40-40h-67.056
		l31.88-63.752C371.92,258.792,416,304.28,416,360v104H392z"/>
	<rect x="344" y="392" style="fill:#2B2D42;" width="16" height="56"/>
	<rect x="344" y="360" style="fill:#2B2D42;" width="16" height="16"/>
	<rect x="416" y="72" style="fill:#2B2D42;" width="16" height="16"/>
	<rect x="416" y="104" style="fill:#2B2D42;" width="16" height="16"/>
	<rect x="416" y="136" style="fill:#2B2D42;" width="16" height="16"/>
	<rect x="48" y="168" style="fill:#2B2D42;" width="16" height="16"/>
	<rect x="48" y="200" style="fill:#2B2D42;" width="16" height="16"/>
	<rect x="48" y="232" style="fill:#2B2D42;" width="16" height="16"/>
</g>
<g>
</g>
<g>
</g>
<g>
</g>
<g>
</g>
<g>
</g>
<g>
</g>
<g>
</g>
<g>
</g>
<g>
</g>
<g>
</g>
<g>
</g>
<g>
</g>
<g>
</g>
<g>
</g>
<g>
</g>
</svg>
