<?xml version="1.0" standalone="no"?>
<!DOCTYPE svg PUBLIC "-//W3C//DTD SVG 20010904//EN"
 "http://www.w3.org/TR/2001/REC-SVG-20010904/DTD/svg10.dtd">
<svg version="1.0" xmlns="http://www.w3.org/2000/svg"
 width="378.000000pt" height="405.000000pt" viewBox="0 0 378.000000 405.000000"
 preserveAspectRatio="xMidYMid meet">
<metadata>
Created by potrace 1.16, written by Peter Selinger 2001-2019
</metadata>
<g transform="translate(0.000000,405.000000) scale(0.100000,-0.100000)"
fill="#000000" stroke="none">
<path d="M1971 3924 c-88 -23 -171 -74 -246 -149 -118 -118 -165 -234 -165
-405 0 -171 47 -287 165 -405 118 -118 234 -165 405 -165 171 0 287 47 405
165 118 118 165 234 165 405 0 171 -47 287 -165 405 -77 77 -159 126 -250 150
-74 19 -241 19 -314 -1z m239 -379 l0 -95 85 0 85 0 0 -80 0 -80 -85 0 -85 0
0 -95 0 -95 -80 0 -80 0 0 95 0 95 -90 0 -90 0 0 80 0 80 90 0 90 0 0 95 0 95
80 0 80 0 0 -95z"/>
<path d="M2983 2886 c-104 -34 -194 -114 -241 -214 -24 -51 -27 -68 -27 -172
0 -110 2 -119 32 -181 39 -80 111 -150 191 -187 51 -24 68 -27 172 -27 110 0
119 2 181 32 80 39 150 111 187 191 24 51 27 68 27 172 0 104 -3 121 -27 172
-37 80 -107 152 -186 190 -59 29 -76 33 -166 35 -65 2 -116 -2 -143 -11z m232
-211 c15 -54 14 -130 -3 -147 -7 -7 0 -20 24 -43 61 -58 39 -84 -94 -109 -86
-16 -122 -30 -122 -46 0 -18 62 -49 132 -67 38 -10 68 -23 68 -29 0 -14 -17
-11 -107 18 -76 24 -113 51 -113 84 0 30 7 33 135 59 88 18 100 23 103 42 5
32 -55 69 -78 49 -23 -21 -122 -4 -178 31 -61 38 -70 54 -48 88 17 26 18 26
37 9 15 -14 16 -20 7 -31 -16 -20 21 -48 82 -63 109 -26 164 63 109 177 -18
38 -23 42 -33 28 -11 -15 -14 -15 -36 3 -25 20 -20 42 10 42 10 0 22 5 26 12
12 19 63 -50 79 -107z"/>
<path d="M2088 1681 l-3 -1078 115 -254 115 -254 43 -3 c25 -2 42 1 42 8 0 6
-52 125 -115 265 l-115 255 0 1070 0 1070 -40 0 -40 0 -2 -1079z"/>
<path d="M1353 2399 c-49 -24 -109 -87 -129 -135 -22 -52 -18 -169 7 -220 23
-49 86 -110 135 -130 52 -22 169 -18 220 7 49 23 110 86 130 135 22 52 18 169
-7 220 -23 49 -86 110 -135 130 -52 22 -171 18 -221 -7z m257 -129 c35 -35 25
-58 -67 -151 -74 -76 -91 -89 -119 -89 -23 0 -38 7 -48 22 -31 44 -21 67 67
155 70 69 89 83 115 83 19 0 40 -8 52 -20z"/>
<path d="M1525 2261 c-11 -5 -46 -36 -78 -70 -45 -47 -58 -67 -55 -86 4 -30
21 -29 23 1 0 12 14 33 30 47 l30 25 29 -25 29 -24 33 32 c39 38 43 71 12 93
-25 18 -25 18 -53 7z"/>
<path d="M3068 1332 l-3 -728 214 -255 214 -254 44 -3 c23 -2 43 1 43 6 0 4
-97 123 -215 263 l-214 254 -1 723 0 722 -40 0 -40 0 -2 -728z"/>
<path d="M879 1861 c-24 -25 -29 -38 -29 -79 0 -53 24 -96 60 -107 20 -6 20
-17 20 -536 l0 -530 -135 -244 c-75 -135 -138 -252 -142 -261 -5 -12 1 -15 27
-12 31 3 37 12 171 253 l139 250 0 537 c0 525 0 537 20 543 36 11 60 54 60
107 0 41 -5 54 -29 79 -25 25 -37 29 -81 29 -44 0 -56 -4 -81 -29z"/>
<path d="M1430 1240 l0 -620 -115 -257 c-63 -141 -115 -260 -115 -265 0 -4 19
-8 43 -8 l43 0 114 258 115 257 -3 628 -2 627 -40 0 -40 0 0 -620z"/>
</g>
</svg>
